<svg version="1.2" xmlns="http://www.w3.org/2000/svg" viewBox="0 0 1160 400" width="1160" height="400">
	<title>New Project</title>
	<defs>
		<linearGradient id="g1" x1="129" y1="120.9" x2="381" y2="120.9" gradientUnits="userSpaceOnUse">
			<stop offset="0" stop-color="#f37536"/>
			<stop offset=".5" stop-color="#faaa43"/>
			<stop offset="1" stop-color="#f37536"/>
		</linearGradient>
		<linearGradient id="g2" x1="-3661.6" y1="290.5" x2="-3661.6" y2="42.7" gradientUnits="userSpaceOnUse">
			<stop offset=".3" stop-color="#166eb7"/>
			<stop offset=".7" stop-color="#05a7e1"/>
		</linearGradient>
		<linearGradient id="g3" x1="-354.1" y1="324.3" x2="-354.1" y2="92.7" gradientUnits="userSpaceOnUse">
			<stop offset=".3" stop-color="#166eb7"/>
			<stop offset=".7" stop-color="#05a7e1"/>
		</linearGradient>
		<linearGradient id="g4" x1="-115.4" y1="324.3" x2="-115.4" y2="110.1" gradientUnits="userSpaceOnUse">
			<stop offset=".3" stop-color="#166eb7"/>
			<stop offset=".7" stop-color="#05a7e1"/>
		</linearGradient>
		<linearGradient id="g5" x1="-35.6" y1="295.6" x2="-35.6" y2="101.6" gradientUnits="userSpaceOnUse">
			<stop offset=".3" stop-color="#166eb7"/>
			<stop offset=".7" stop-color="#05a7e1"/>
		</linearGradient>
		<linearGradient id="g6" x1="-285.2" y1="324.3" x2="-285.2" y2="92.7" gradientUnits="userSpaceOnUse">
			<stop offset=".3" stop-color="#166eb7"/>
			<stop offset=".7" stop-color="#05a7e1"/>
		</linearGradient>
		<linearGradient id="g7" x1="-8.7" y1="324.3" x2="-8.7" y2="110.1" gradientUnits="userSpaceOnUse">
			<stop offset=".3" stop-color="#166eb7"/>
			<stop offset=".7" stop-color="#05a7e1"/>
		</linearGradient>
		<linearGradient id="g8" x1="107.9" y1="296.2" x2="107.9" y2="101.6" gradientUnits="userSpaceOnUse">
			<stop offset=".3" stop-color="#166eb7"/>
			<stop offset=".7" stop-color="#05a7e1"/>
		</linearGradient>
		<linearGradient id="g9" x1="74.9" y1="170.4" x2="74.9" y2="127.8" gradientUnits="userSpaceOnUse">
			<stop offset="0" stop-color="#05a7e1"/>
			<stop offset="1" stop-color="#04b7b0"/>
		</linearGradient>
		<linearGradient id="g10" x1="34.8" y1="184.2" x2="34.8" y2="120.9" gradientUnits="userSpaceOnUse">
			<stop offset="0" stop-color="#05a7e1"/>
			<stop offset="1" stop-color="#04b7b0"/>
		</linearGradient>
		<linearGradient id="g11" x1="32.4" y1="207.4" x2="32.4" y2="111.8" gradientUnits="userSpaceOnUse">
			<stop offset="0" stop-color="#05a7e1"/>
			<stop offset="1" stop-color="#04b7b0"/>
		</linearGradient>
		<linearGradient id="g12" x1="-1243.6" y1="205.6" x2="-1243.6" y2="85.7" gradientUnits="userSpaceOnUse">
			<stop offset="0" stop-color="#05a7e1"/>
			<stop offset="1" stop-color="#04b7b0"/>
		</linearGradient>
		<linearGradient id="g13" x1="101.4" y1="206.4" x2="101.4" y2="132.1" gradientUnits="userSpaceOnUse">
			<stop offset="0" stop-color="#05a7e1"/>
			<stop offset="1" stop-color="#04b7b0"/>
		</linearGradient>
		<linearGradient id="g14" x1="188.2" y1="188.7" x2="185.5" y2="127.4" gradientUnits="userSpaceOnUse">
			<stop offset="0" stop-color="#05a7e1"/>
			<stop offset="1" stop-color="#04b7b0"/>
		</linearGradient>
		<linearGradient id="g15" x1="288.2" y1="167.2" x2="288.2" y2="133.9" gradientUnits="userSpaceOnUse">
			<stop offset="0" stop-color="#05a7e1"/>
			<stop offset="1" stop-color="#04b7b0"/>
		</linearGradient>
		<linearGradient id="g16" x1="159.8" y1="309.7" x2="159.8" y2="270.7" gradientUnits="userSpaceOnUse">
			<stop offset="0" stop-color="#963294"/>
			<stop offset="1" stop-color="#135fad"/>
		</linearGradient>
		<linearGradient id="g17" x1="149.9" y1="308" x2="149.9" y2="256.7" gradientUnits="userSpaceOnUse">
			<stop offset="0" stop-color="#963294"/>
			<stop offset="1" stop-color="#135fad"/>
		</linearGradient>
		<linearGradient id="g18" x1="134.4" y1="307.4" x2="134.4" y2="254.4" gradientUnits="userSpaceOnUse">
			<stop offset="0" stop-color="#963294"/>
			<stop offset="1" stop-color="#135fad"/>
		</linearGradient>
		<linearGradient id="g19" x1="350.9" y1="268.5" x2="350.9" y2="307.5" gradientUnits="userSpaceOnUse">
			<stop offset="0" stop-color="#963294"/>
			<stop offset="1" stop-color="#135fad"/>
		</linearGradient>
		<linearGradient id="g20" x1="360.7" y1="253.9" x2="360.7" y2="305.2" gradientUnits="userSpaceOnUse">
			<stop offset="0" stop-color="#963294"/>
			<stop offset="1" stop-color="#135fad"/>
		</linearGradient>
		<linearGradient id="g21" x1="376.3" y1="251.5" x2="376.3" y2="304.5" gradientUnits="userSpaceOnUse">
			<stop offset="0" stop-color="#963294"/>
			<stop offset="1" stop-color="#135fad"/>
		</linearGradient>
		<linearGradient id="g22" x1="99.2" y1="314.7" x2="99.2" y2="284.5" gradientUnits="userSpaceOnUse">
			<stop offset="0" stop-color="#963294"/>
			<stop offset="1" stop-color="#135fad"/>
		</linearGradient>
	</defs>
	<style>
		tspan { white-space:pre } 
		.t0 { font-size: 75px;fill: #006fe2;font-weight: 700;font-family: "Montserrat-Bold", "Montserrat" } 
		.t1 { font-size: 75px;fill: #f37636;font-weight: 700;font-family: "Montserrat-Bold", "Montserrat" } 
		.s2 { fill: url(#g1) } 
		.s3 { fill: url(#g2) } 
		.s4 { fill: url(#g3) } 
		.s5 { fill: url(#g4) } 
		.s6 { fill: url(#g5) } 
		.s7 { fill: url(#g6) } 
		.s8 { fill: url(#g7) } 
		.s9 { fill: url(#g8) } 
		.s10 { fill: url(#g9) } 
		.s11 { fill: url(#g10) } 
		.s12 { fill: url(#g11) } 
		.s13 { fill: url(#g12) } 
		.s14 { fill: url(#g13) } 
		.s15 { fill: url(#g14) } 
		.s16 { fill: url(#g15) } 
		.s17 { opacity: .6;fill: url(#g16) } 
		.s18 { opacity: .6;fill: url(#g17) } 
		.s19 { opacity: .6;fill: url(#g18) } 
		.s20 { opacity: .6;fill: url(#g19) } 
		.s21 { opacity: .6;fill: url(#g20) } 
		.s22 { opacity: .6;fill: url(#g21) } 
		.s23 { opacity: .6;fill: url(#g22) } 
	</style>
	<g id="&lt;Group&gt; copy 6">
		<text id="Learn X" style="transform: matrix(2,0,0,2,733.448,252.295)" >
			<tspan x="-149.2" y="0" class="t0" dx="0" >L</tspan><tspan  y="0" class="t0" dx="0" >e</tspan><tspan  y="0" class="t0" dx="0" >a</tspan><tspan  y="0" class="t0" dx="0" >r</tspan><tspan  y="0" class="t0" dx="0" >n</tspan><tspan  y="0" class="t0" dx="0" > </tspan><tspan  y="0" class="t1" dx="0" >X</tspan><tspan  y="0" class="t1" dx="0" >
</tspan>
		</text>
		<g id="&lt;Group&gt;">
			<path id="&lt;Path&gt;" class="s2" d="m381 127.1v141.4c0 2.4-1.3 4.6-3.3 5.7l-77.5 44.5-10.3 5.9-9.3 5.3c-2.6 1.5-5.5 2.3-8.5 2.3h-34.2c-3 0-5.9-0.8-8.5-2.3l-9.3-5.3-10.3-5.9-77.5-44.5c-2-1.1-3.3-3.3-3.3-5.7v-141.4c0-1.3 0.7-2.5 1.8-3.1l4.8-2.7q0.1-0.1 0.2-0.1c0.1-0.1 1.6-0.8 3.9 0.5 1.4 0.8-1.4 2.7-2.4 3.4v140.9c0 1.7 0.9 3.2 2.4 4l83.9 48.7 5.9 3.4c2.5 1.5 5.4 2.2 8.3 2.2h34.4c2.9 0 5.8-0.7 8.3-2.2l5.9-3.4 83.9-48.7c1.5-0.8 2.4-2.3 2.4-4v-140.9c-1-0.7-3.8-2.6-2.4-3.4 2.3-1.3 3.8-0.6 3.9-0.5q0.1 0 0.2 0.1l4.8 2.7c1.1 0.6 1.8 1.8 1.8 3.1z"/>
			<path id="&lt;Path&gt;" class="s3" d="m259.2 72.2v252.1h-8.3v-252.1c0-2.3 1.8-4.2 4.2-4.2 1.1 0 2.2 0.5 2.9 1.2 0.8 0.8 1.2 1.8 1.2 3z"/>
			<g id="&lt;Group&gt;">
				<path id="&lt;Path&gt;" class="s4" d="m243.9 180.1v144.2l-46.1-88q-0.4-0.8-0.6-1.7-0.3-1-0.3-2.1v-137.5c0-2.4 3.1-3.1 4.2-1.1l40.7 77.8c1.4 2.6 2.1 5.4 2.1 8.4z"/>
				<path id="&lt;Path&gt;" class="s5" d="m238 324.3l-71.2-68.7q-0.9-0.9-1.3-2-0.2-0.4-0.3-0.8-0.1-0.6-0.1-1.1v-139.2c0-2.1 2.5-3.2 4-1.8l19.3 17.9c1.7 1.6 2.6 3.7 2.6 5.9v99.4q0 1 0.3 2 0.2 0.9 0.6 1.7 0 0 0.1 0.1z"/>
				<path id="&lt;Path&gt;" class="s6" d="m229.5 322.1l-92.3-53.4v-145.6c0-1.3 1.4-2 2.4-1.4l17.1 10c1.6 0.9 2.5 2.5 2.5 4.3v118.7q0 0.7 0.2 1.4 0.2 0.8 0.6 1.5 0.4 0.6 0.9 1.1z"/>
			</g>
			<g id="&lt;Group&gt;">
				<path id="&lt;Path&gt;" class="s7" d="m312.9 95v137.5c0 1.3-0.4 2.6-1 3.8l-46.1 88v-144.2c0-3 0.7-5.8 2.1-8.4l40.7-77.8c1.1-2 4.3-1.3 4.3 1.1z"/>
				<path id="&lt;Path&gt;" class="s8" d="m344.6 112.5v139.2c0 1.4-0.6 2.8-1.6 3.9l-71.3 68.7 46.1-86.6c0.6-1.2 0.9-2.5 0.9-3.8v-99.4c0-2.2 1-4.3 2.6-5.9l19.4-17.9c1.5-1.4 3.9-0.3 3.9 1.8z"/>
				<path id="&lt;Path&gt;" class="s9" d="m372.5 123.1v145.6l-93.4 54.1 69.7-64.1c1.1-1 1.7-2.5 1.7-4v-118.7c0-1.8 1-3.4 2.5-4.3l17.1-10c1.1-0.6 2.4 0.1 2.4 1.4z"/>
			</g>
			<path id="&lt;Path&gt;" class="s10" d="m159.2 136v41.8l-22-12.2v-42.5c0-1.3 1.4-2 2.4-1.4l17.1 10c1.6 0.9 2.5 2.5 2.5 4.3z"/>
			<path id="&lt;Path&gt;" class="s11" d="m188.4 128.6c1.7 1.6 2.6 3.7 2.6 5.9v61l-25.9-14.4v-68.6c0-2.1 2.5-3.2 4-1.8z"/>
			<path id="&lt;Path&gt;" class="s12" d="m243.9 180.1v44.7l-47-26.1v-103.7c0-2.4 3.1-3.1 4.2-1.1l40.7 77.8c1.4 2.6 2.1 5.4 2.1 8.4z"/>
			<path id="&lt;Path&gt;" class="s13" d="m259.2 72.2v154.4h-8.3v-154.4c0-2.3 1.8-4.2 4.2-4.2 1.1 0 2.2 0.5 2.9 1.2 0.8 0.8 1.2 1.8 1.2 3z"/>
			<path id="&lt;Path&gt;" class="s14" d="m312.9 95v103.7l-47.1 26.1v-44.7c0-3 0.7-5.8 2.1-8.4l40.7-77.8c1.1-2 4.3-1.3 4.3 1.1z"/>
			<path id="&lt;Path&gt;" class="s15" d="m344.6 112.5v68.6l-25.9 14.4v-61c0-2.2 1-4.3 2.6-5.9l19.4-17.9c1.5-1.4 3.9-0.3 3.9 1.8z"/>
			<path id="&lt;Path&gt;" class="s16" d="m372.5 123.1v42.5l-22 12.2v-41.8c0-1.8 1-3.4 2.5-4.3l17.1-10c1.1-0.6 2.4 0.1 2.4 1.4z"/>
			<g id="&lt;Group&gt;">
				<path id="&lt;Path&gt;" class="s17" d="m160.9 258.7l68.6 63.4-92.3-53.4 22.2-12.6q0.2 0.8 0.6 1.5 0.4 0.6 0.9 1.1z"/>
				<path id="&lt;Path&gt;" class="s18" d="m192 237.7l46 86.6-71.2-68.7q-0.9-0.9-1.3-2-0.2-0.4-0.3-0.8l26.7-15.2q0 0 0.1 0.1z"/>
				<path id="&lt;Path&gt;" class="s19" d="m243.9 273.2v51.1l-46.1-88q-0.4-0.8-0.6-1.7l46.2 38.6z"/>
			</g>
			<g id="&lt;Group&gt;">
				<path id="&lt;Path&gt;" class="s20" d="m350.7 257.6q0.4-0.7 0.6-1.5l22.2 12.6-92.4 53.4 68.6-63.4q0.6-0.5 1-1.1z"/>
				<path id="&lt;Path&gt;" class="s21" d="m318.8 237.6l26.7 15.2q-0.1 0.4-0.3 0.8-0.4 1.1-1.3 2l-71.2 68.7 46-86.6q0.1-0.1 0.1-0.1z"/>
				<path id="&lt;Path&gt;" class="s22" d="m267.3 273.2l46.2-38.6q-0.2 0.9-0.6 1.7l-46.1 88v-51.1z"/>
			</g>
			<path id="&lt;Path&gt;" class="s23" d="m250.9 273.2h8.3v51.1h-8.3z"/>
		</g>
	</g>
</svg>