<svg version="1.2" xmlns="http://www.w3.org/2000/svg" viewBox="0 0 1000 1000" width="1000" height="1000">
	<title>learn x logo 2</title>
	<defs>
		<linearGradient id="g1" x1="272.4" y1="356.2" x2="727.6" y2="356.2" gradientUnits="userSpaceOnUse">
			<stop offset="0" stop-color="#f37536"/>
			<stop offset=".5" stop-color="#faaa43"/>
			<stop offset="1" stop-color="#f37536"/>
		</linearGradient>
		<linearGradient id="g2" x1="-6573.7" y1="662.4" x2="-6573.7" y2="214.8" gradientUnits="userSpaceOnUse">
			<stop offset=".3" stop-color="#166eb7"/>
			<stop offset=".7" stop-color="#05a7e1"/>
		</linearGradient>
		<linearGradient id="g3" x1="-600.1" y1="723.5" x2="-600.1" y2="305.3" gradientUnits="userSpaceOnUse">
			<stop offset=".3" stop-color="#166eb7"/>
			<stop offset=".7" stop-color="#05a7e1"/>
		</linearGradient>
		<linearGradient id="g4" x1="-168.9" y1="723.5" x2="-168.9" y2="336.6" gradientUnits="userSpaceOnUse">
			<stop offset=".3" stop-color="#166eb7"/>
			<stop offset=".7" stop-color="#05a7e1"/>
		</linearGradient>
		<linearGradient id="g5" x1="-24.8" y1="671.7" x2="-24.8" y2="321.3" gradientUnits="userSpaceOnUse">
			<stop offset=".3" stop-color="#166eb7"/>
			<stop offset=".7" stop-color="#05a7e1"/>
		</linearGradient>
		<linearGradient id="g6" x1="-475.6" y1="723.5" x2="-475.6" y2="305.3" gradientUnits="userSpaceOnUse">
			<stop offset=".3" stop-color="#166eb7"/>
			<stop offset=".7" stop-color="#05a7e1"/>
		</linearGradient>
		<linearGradient id="g7" x1="23.7" y1="723.5" x2="23.7" y2="336.6" gradientUnits="userSpaceOnUse">
			<stop offset=".3" stop-color="#166eb7"/>
			<stop offset=".7" stop-color="#05a7e1"/>
		</linearGradient>
		<linearGradient id="g8" x1="234.4" y1="672.7" x2="234.4" y2="321.2" gradientUnits="userSpaceOnUse">
			<stop offset=".3" stop-color="#166eb7"/>
			<stop offset=".7" stop-color="#05a7e1"/>
		</linearGradient>
		<linearGradient id="g9" x1="174.8" y1="445.5" x2="174.8" y2="368.5" gradientUnits="userSpaceOnUse">
			<stop offset="0" stop-color="#05a7e1"/>
			<stop offset="1" stop-color="#04b7b0"/>
		</linearGradient>
		<linearGradient id="g10" x1="102.3" y1="470.4" x2="102.3" y2="356.2" gradientUnits="userSpaceOnUse">
			<stop offset="0" stop-color="#05a7e1"/>
			<stop offset="1" stop-color="#04b7b0"/>
		</linearGradient>
		<linearGradient id="g11" x1="98" y1="512.3" x2="98" y2="339.7" gradientUnits="userSpaceOnUse">
			<stop offset="0" stop-color="#05a7e1"/>
			<stop offset="1" stop-color="#04b7b0"/>
		</linearGradient>
		<linearGradient id="g12" x1="-2206.7" y1="509.1" x2="-2206.7" y2="292.6" gradientUnits="userSpaceOnUse">
			<stop offset="0" stop-color="#05a7e1"/>
			<stop offset="1" stop-color="#04b7b0"/>
		</linearGradient>
		<linearGradient id="g13" x1="222.6" y1="510.5" x2="222.6" y2="376.3" gradientUnits="userSpaceOnUse">
			<stop offset="0" stop-color="#05a7e1"/>
			<stop offset="1" stop-color="#04b7b0"/>
		</linearGradient>
		<linearGradient id="g14" x1="379.3" y1="478.6" x2="374.5" y2="367.8" gradientUnits="userSpaceOnUse">
			<stop offset="0" stop-color="#05a7e1"/>
			<stop offset="1" stop-color="#04b7b0"/>
		</linearGradient>
		<linearGradient id="g15" x1="560" y1="439.8" x2="560" y2="379.6" gradientUnits="userSpaceOnUse">
			<stop offset="0" stop-color="#05a7e1"/>
			<stop offset="1" stop-color="#04b7b0"/>
		</linearGradient>
		<linearGradient id="g16" x1="328" y1="697.1" x2="328" y2="626.6" gradientUnits="userSpaceOnUse">
			<stop offset="0" stop-color="#963294"/>
			<stop offset="1" stop-color="#135fad"/>
		</linearGradient>
		<linearGradient id="g17" x1="310.3" y1="694" x2="310.3" y2="601.5" gradientUnits="userSpaceOnUse">
			<stop offset="0" stop-color="#963294"/>
			<stop offset="1" stop-color="#135fad"/>
		</linearGradient>
		<linearGradient id="g18" x1="282.2" y1="693" x2="282.2" y2="597.3" gradientUnits="userSpaceOnUse">
			<stop offset="0" stop-color="#963294"/>
			<stop offset="1" stop-color="#135fad"/>
		</linearGradient>
		<linearGradient id="g19" x1="673.3" y1="622.7" x2="673.3" y2="693.2" gradientUnits="userSpaceOnUse">
			<stop offset="0" stop-color="#963294"/>
			<stop offset="1" stop-color="#135fad"/>
		</linearGradient>
		<linearGradient id="g20" x1="691" y1="596.4" x2="691" y2="688.9" gradientUnits="userSpaceOnUse">
			<stop offset="0" stop-color="#963294"/>
			<stop offset="1" stop-color="#135fad"/>
		</linearGradient>
		<linearGradient id="g21" x1="719.1" y1="592" x2="719.1" y2="687.7" gradientUnits="userSpaceOnUse">
			<stop offset="0" stop-color="#963294"/>
			<stop offset="1" stop-color="#135fad"/>
		</linearGradient>
		<linearGradient id="g22" x1="218.6" y1="706.1" x2="218.6" y2="651.6" gradientUnits="userSpaceOnUse">
			<stop offset="0" stop-color="#963294"/>
			<stop offset="1" stop-color="#135fad"/>
		</linearGradient>
	</defs>
	<style>
		tspan { white-space:pre } 
		.s0 { fill: url(#g1) } 
		.s1 { fill: url(#g2) } 
		.s2 { fill: url(#g3) } 
		.s3 { fill: url(#g4) } 
		.s4 { fill: url(#g5) } 
		.s5 { fill: url(#g6) } 
		.s6 { fill: url(#g7) } 
		.s7 { fill: url(#g8) } 
		.s8 { fill: url(#g9) } 
		.s9 { fill: url(#g10) } 
		.s10 { fill: url(#g11) } 
		.s11 { fill: url(#g12) } 
		.s12 { fill: url(#g13) } 
		.s13 { fill: url(#g14) } 
		.s14 { fill: url(#g15) } 
		.s15 { opacity: .6;fill: url(#g16) } 
		.s16 { opacity: .6;fill: url(#g17) } 
		.s17 { opacity: .6;fill: url(#g18) } 
		.s18 { opacity: .6;fill: url(#g19) } 
		.s19 { opacity: .6;fill: url(#g20) } 
		.s20 { opacity: .6;fill: url(#g21) } 
		.s21 { opacity: .6;fill: url(#g22) } 
		.t22 { font-size: 50px;fill: #006fe2;font-weight: 700;font-family: "Montserrat-Bold", "Montserrat" } 
		.t23 { font-size: 50px;fill: #f37636;font-weight: 700;font-family: "Montserrat-Bold", "Montserrat" } 
	</style>
	<g id="BACKGROUND">
	</g>
	<g id="OBJECTS">
		<g id="&lt;Group&gt;">
			<g id="&lt;Group&gt;">
				<path id="&lt;Path&gt;" class="s0" d="m727.6 367.3v255.4c0 4.3-2.3 8.2-6 10.4l-140 80.2-18.5 10.7-16.8 9.6c-4.7 2.7-10.1 4.1-15.5 4.1h-61.6c-5.4 0-10.8-1.4-15.5-4.1l-16.8-9.6-18.5-10.7-140-80.2c-3.7-2.2-6-6.1-6-10.4v-255.4c0-2.3 1.2-4.4 3.3-5.5l8.6-5q0.2-0.1 0.3-0.1c0.4-0.2 3.1-1.4 7.1 0.8 2.7 1.5-2.4 5-4.2 6.2v254.5c0 3 1.6 5.8 4.2 7.3l151.6 87.8 10.7 6.3c4.5 2.6 9.6 3.9 14.8 3.9h62.4c5.2 0 10.3-1.3 14.8-3.9l10.7-6.3 151.6-87.8c2.6-1.5 4.2-4.3 4.2-7.3v-254.5c-1.8-1.2-6.9-4.7-4.2-6.2 4.1-2.2 6.7-1 7.1-0.8q0.1 0 0.3 0.1l8.6 5c2.1 1.1 3.3 3.2 3.3 5.5z"/>
				<path id="&lt;Path&gt;" class="s1" d="m507.7 268.2v455.3h-15.2v-455.3c0-4.2 3.4-7.6 7.6-7.6 2.1 0 4 0.8 5.3 2.2 1.4 1.4 2.3 3.3 2.3 5.4z"/>
				<g id="&lt;Group&gt;">
					<path id="&lt;Path&gt;" class="s2" d="m480 463v260.5l-83.3-158.9q-0.8-1.5-1.2-3.2-0.5-1.8-0.5-3.7v-248.4c0-4.2 5.7-5.6 7.7-1.9l73.5 140.4c2.5 4.7 3.8 9.9 3.8 15.2z"/>
					<path id="&lt;Path&gt;" class="s3" d="m469.3 723.5l-128.7-124.2c-1-1-1.8-2.1-2.3-3.5q-0.3-0.7-0.5-1.5-0.2-1-0.2-2v-251.4c0-3.8 4.5-5.7 7.2-3.2l35 32.4c2.9 2.8 4.6 6.6 4.6 10.6v179.5q0 1.9 0.5 3.7c0.2 1 0.6 2 1.1 3q0.1 0.1 0.1 0.2z"/>
					<path id="&lt;Path&gt;" class="s4" d="m454 719.6l-166.7-96.6v-263c0-2.2 2.4-3.6 4.3-2.4l30.9 18.1c2.8 1.6 4.5 4.5 4.5 7.7v214.4q0 1.3 0.3 2.5 0.4 1.4 1.2 2.7 0.7 1.1 1.6 2z"/>
				</g>
				<g id="&lt;Group&gt;">
					<path id="&lt;Path&gt;" class="s5" d="m604.5 309.3v248.4c0 2.4-0.6 4.8-1.7 6.9l-83.2 158.9v-260.5c0-5.3 1.2-10.5 3.7-15.2l73.5-140.4c2-3.7 7.7-2.3 7.7 1.9z"/>
					<path id="&lt;Path&gt;" class="s6" d="m661.9 340.9v251.4c0 2.7-1.1 5.2-3 7l-128.7 124.2 83.2-156.4c1.1-2.2 1.7-4.5 1.7-6.9v-179.5c0-4 1.7-7.8 4.7-10.6l34.9-32.4c2.8-2.5 7.2-0.6 7.2 3.2z"/>
					<path id="&lt;Path&gt;" class="s7" d="m712.2 360v263l-168.6 97.8 125.8-115.8c2-1.8 3.1-4.5 3.1-7.2v-214.4c0-3.2 1.7-6.1 4.5-7.7l30.9-18.1c1.9-1.2 4.3 0.2 4.3 2.4z"/>
				</g>
				<path id="&lt;Path&gt;" class="s8" d="m327 383.4v75.6l-39.7-22.1v-76.9c0-2.2 2.4-3.6 4.3-2.4l30.9 18.1c2.8 1.6 4.5 4.5 4.5 7.7z"/>
				<path id="&lt;Path&gt;" class="s9" d="m379.8 370.1c2.9 2.8 4.6 6.6 4.6 10.6v110.1l-46.8-26v-123.9c0-3.8 4.5-5.7 7.2-3.2z"/>
				<path id="&lt;Path&gt;" class="s10" d="m480 463v80.8l-85-47.1v-187.4c0-4.2 5.7-5.6 7.7-1.9l73.5 140.4c2.5 4.7 3.8 9.9 3.8 15.2z"/>
				<path id="&lt;Path&gt;" class="s11" d="m507.7 268.2v278.8h-15.2v-278.8c0-4.2 3.4-7.6 7.6-7.6 2.1 0 4 0.8 5.3 2.2 1.4 1.4 2.3 3.3 2.3 5.4z"/>
				<path id="&lt;Path&gt;" class="s12" d="m604.5 309.3v187.4l-84.9 47.1v-80.8c0-5.3 1.2-10.5 3.7-15.2l73.5-140.4c2-3.7 7.7-2.3 7.7 1.9z"/>
				<path id="&lt;Path&gt;" class="s13" d="m661.9 340.9v123.9l-46.8 26v-110.1c0-4 1.7-7.8 4.7-10.6l34.9-32.4c2.8-2.5 7.2-0.6 7.2 3.2z"/>
				<path id="&lt;Path&gt;" class="s14" d="m712.2 360v76.9l-39.7 22.1v-75.6c0-3.2 1.7-6.1 4.5-7.7l30.9-18.1c1.9-1.2 4.3 0.2 4.3 2.4z"/>
				<g id="&lt;Group&gt;">
					<path id="&lt;Path&gt;" class="s15" d="m330.1 605l123.9 114.6-166.7-96.6 40-22.7q0.4 1.4 1.2 2.7 0.7 1.1 1.6 2z"/>
					<path id="&lt;Path&gt;" class="s16" d="m386.1 567.1l83.2 156.4-128.7-124.2c-1-1-1.8-2.1-2.3-3.5q-0.3-0.7-0.5-1.5l48.2-27.4q0.1 0.1 0.1 0.2z"/>
					<path id="&lt;Path&gt;" class="s17" d="m480 631.2v92.3l-83.3-158.9q-0.8-1.5-1.2-3.2l83.6 69.8z"/>
				</g>
				<g id="&lt;Group&gt;">
					<path id="&lt;Path&gt;" class="s18" d="m672.8 603q0.7-1.3 1.1-2.7l40.1 22.7-166.8 96.6 123.9-114.6q1-0.9 1.7-2z"/>
					<path id="&lt;Path&gt;" class="s19" d="m615.2 566.9l48.2 27.4q-0.1 0.8-0.5 1.5c-0.5 1.4-1.3 2.5-2.3 3.5l-128.7 124.2 83.2-156.4q0.1-0.1 0.1-0.2z"/>
					<path id="&lt;Path&gt;" class="s20" d="m522.2 631.2l83.5-69.8q-0.4 1.7-1.2 3.2l-83.2 158.9v-92.3z"/>
				</g>
				<path id="&lt;Path&gt;" class="s21" d="m507.7 631.2v92.3h-15.2v-92.3z"/>
			</g>
			<text id="Learn X" style="transform: matrix(2,0,0,2,496.448,853.295)" >
				<tspan x="-99.7" y="0" class="t22" dx="0" >L</tspan><tspan  y="0" class="t22" dx="0" >e</tspan><tspan  y="0" class="t22" dx="0" >a</tspan><tspan  y="0" class="t22" dx="0" >r</tspan><tspan  y="0" class="t22" dx="0" >n</tspan><tspan  y="0" class="t22" dx="0" > </tspan><tspan  y="0" class="t23" dx="0" >X</tspan><tspan  y="0" class="t23" dx="0" >
</tspan>
			</text>
		</g>
	</g>
</svg>